<?xml version="1.0" encoding="UTF-8" standalone="no"?>
<!-- Created with Inkscape (http://www.inkscape.org/) -->
<svg xmlns:dc="http://purl.org/dc/elements/1.1/" xmlns:cc="http://creativecommons.org/ns#" xmlns:rdf="http://www.w3.org/1999/02/22-rdf-syntax-ns#" xmlns:svg="http://www.w3.org/2000/svg" xmlns="http://www.w3.org/2000/svg" xmlns:sodipodi="http://sodipodi.sourceforge.net/DTD/sodipodi-0.dtd" xmlns:inkscape="http://www.inkscape.org/namespaces/inkscape" width="116.226mm" height="28.77161mm" viewBox="0 0 116.226 28.77161" version="1.1" id="svg14017" inkscape:version="0.92.0 r15299" sodipodi:docname="arconic.svg"><link xmlns="" type="text/css" id="dark-mode" rel="stylesheet" href=""/><style xmlns="" type="text/css" id="dark-mode-custom-style"/>
  <defs id="defs14011"/>
  <sodipodi:namedview id="base" pagecolor="#ffffff" bordercolor="#666666" borderopacity="1.0" inkscape:pageopacity="0.0" inkscape:pageshadow="2" inkscape:zoom="2.0597023" inkscape:cx="217.74991" inkscape:cy="52.481787" inkscape:document-units="mm" inkscape:current-layer="layer1" showgrid="false" fit-margin-top="0" fit-margin-left="0" fit-margin-right="0" fit-margin-bottom="0" units="mm" inkscape:window-width="1280" inkscape:window-height="744" inkscape:window-x="-4" inkscape:window-y="-4" inkscape:window-maximized="1"/>
  <metadata id="metadata14014">
    <rdf:RDF>
      <cc:Work rdf:about="">
        <dc:format>image/svg+xml</dc:format>
        <dc:type rdf:resource="http://purl.org/dc/dcmitype/StillImage"/>
        <dc:title/>
      </cc:Work>
    </rdf:RDF>
  </metadata>
  <g inkscape:label="Layer 1" inkscape:groupmode="layer" id="layer1" transform="translate(-0.59533333,-161.91776)">
    <g id="g14029" transform="translate(0.50000063,-0.50000311)">
      <path style="fill:#000000;stroke-width:0.26458332" inkscape:connector-curvature="0" class="st0" d="m 55.734534,184.05136 h -2.4077 l -0.688002,-2.03729 h -3.545398 l -0.687901,2.03729 h -2.4077 l 3.386701,-9.525 h 3.0427 z m -4.868399,-7.64646 -1.27,3.73062 h 2.487099 z m 9.8425,7.64646 h -2.434101 v -9.525 h 3.81 c 2.54,0 3.862901,1.16416 3.862901,3.01625 0,1.27 -0.661501,2.24896 -1.957901,2.75166 l 2.116601,3.75709 h -2.407701 l -1.905,-3.20146 -1.1112,0.0794 v 3.12209 z m 1.190699,-4.92125 c 1.031801,-0.0794 1.5875,-0.50271 1.5875,-1.42875 0,-0.84667 -0.5821,-1.24354 -1.799201,-1.24354 h -1.005399 v 2.69875 z m 13.9964,-2.09021 c -0.714399,-0.42333 -1.561,-0.68792 -2.407701,-0.68792 -1.6404,0 -2.698699,1.11125 -2.698699,2.91042 0,1.79917 1.0054,2.96333 2.7252,2.96333 0.925999,0 1.799101,-0.3175 2.513499,-0.76729 l 0.502701,2.14313 c -0.740799,0.42333 -2.010799,0.68791 -3.122099,0.68791 -3.042701,0 -5.053502,-1.74625 -5.053502,-4.94771 0,-3.06916 1.984401,-5.02708 5.1329,-5.02708 1.164201,0 2.275401,0.29104 3.1485,0.71438 z m 7.567099,7.24958 c -2.804599,0 -4.974198,-1.74625 -4.974198,-4.97416 0,-3.01625 2.169599,-5.00063 5.000699,-5.00063 2.830999,0 4.9741,1.74625 4.9741,4.94771 0,3.01625 -2.169599,5.02708 -5.000601,5.02708 m 0,-8.04333 c -1.613998,0 -2.54,1.21708 -2.54,2.98979 0,1.82563 0.9525,3.06917 2.566501,3.06917 1.5875,0 2.54,-1.24354 2.54,-3.01625 0,-1.79917 -0.9525,-3.04271 -2.566501,-3.04271 m 14.1287,-1.71979 h 2.275501 v 9.525 h -2.619399 l -3.942302,-6.16479 v 6.16479 h -2.275398 v -9.525 h 2.619399 l 3.968699,6.19125 v -6.19125 z m 4.921297,0 h 2.4342 v 9.525 h -2.4342 z m 12.5677,2.51354 c -0.7144,-0.42333 -1.561,-0.68792 -2.4077,-0.68792 -1.6404,0 -2.6988,1.11125 -2.6988,2.91042 0,1.79917 1.0055,2.96333 2.7253,2.96333 0.926,0 1.7991,-0.3175 2.5135,-0.76729 l 0.5027,2.14313 c -0.7408,0.42333 -2.0108,0.68791 -3.1221,0.68791 -3.0427,0 -5.0535,-1.74625 -5.0535,-4.94771 0,-3.06916 1.9844,-5.02708 5.1329,-5.02708 1.1642,0 2.2754,0.29104 3.1485,0.71438 z" id="path13976"/>
      <path style="fill:#01b0ba;stroke-width:0.26458332" inkscape:connector-curvature="0" class="st1" d="m 27.979734,190.58657 -8.546101,-4.92125 -8.546,4.92125 c -0.2381,0.13229 -0.5556,0.13229 -0.7938,0 l -9.10159967,-5.26521 c -0.2382,-0.13229 -0.3969,-0.39688 -0.3969,-0.68792 v -10.50396 c 0,-0.29104 0.1587,-0.55562 0.3969,-0.68791 L 19.036833,163.01698 c 0.2381,-0.13229 0.5556,-0.13229 0.7937,0 l 18.0446,10.42459 c 0.238101,0.13229 0.396901,0.39687 0.396901,0.68791 v 10.53042 c 0,0.29104 -0.1588,0.52917 -0.396901,0.68792 l -9.101699,5.2652 c -0.238101,0.10584 -0.555601,0.10584 -0.7937,-0.0264 m -17.489001,-1.98438 7.0115,-4.04812 -7.0115,-4.04813 -7.0113996,4.04813 z m 18.8383,-0.55562 7.0115,-4.04813 v -8.09625 l -7.0115,4.04813 z m -1.905,0 v -8.09625 l -7.9904,-4.60375 -7.0114,4.04812 z m -24.8971997,-5.18584 6.0589,-3.4925 -6.0589,-3.46604 z m 7.9638997,-4.60375 7.964,-4.60375 v -8.09625 l -14.9753996,8.65188 z m 17.8858,0 7.0115,-4.04812 -15.0019,-8.65188 v 8.09625 z" id="path13978"/>
    </g>
  </g>
</svg>