<?xml version="1.0" encoding="utf-8"?>
<!-- Generator: Adobe Illustrator 24.0.2, SVG Export Plug-In . SVG Version: 6.00 Build 0)  -->
<svg version="1.1" id="Warstwa_1" xmlns="http://www.w3.org/2000/svg" xmlns:xlink="http://www.w3.org/1999/xlink" x="0px" y="0px"
	 viewBox="0 0 77 47" style="enable-background:new 0 0 77 47;" xml:space="preserve">
<style type="text/css">
	.st0{fill:#4D5558;}
	.st1{fill:#41457C;}
</style>
<g>
	<g>
		<path class="st0" d="M70.4,22.5c-0.9-0.8-1.9-0.9-3-0.4c-0.3,0.1-0.6,0.4-1,0.6c-0.1,0.1-0.3,0.2-0.4,0.3
			c-0.8,0.5-1.7,0.2-2.1-0.6c0,0,0-0.1,0-0.1c0-0.3,0-0.5,0-0.8c0-1,0-2,0-3c0-0.9-0.3-1.5-1-1.8c-0.2-0.1-0.3-0.2-0.5-0.3
			c-1-0.6-2-1.1-2.9-1.8c0,0-0.1,0-0.1-0.1c-0.7,0.1-1.2,0.7-1.2,1.6c0,0.5,0.1,0.9,0,1.4c-0.1,1-0.7,1.9-1.7,2.2
			c-1.1,0.4-2.1,0.1-3-0.7c-1.6-1.4-1.2-3.7,0.8-4.6c0.2-0.1,0.3-0.1,0.5-0.2c0.8-0.4,1.1-1.1,0.9-1.8c-1.6-0.9-3.2-1.8-3.6-2.1
			c-0.2-0.1-0.5-0.2-0.7-0.3c-0.4-0.1-0.9-0.1-1.3,0.1c-0.2,0.1-0.4,0.2-0.6,0.3c-1,0.5-2,1.1-3,1.6c-0.9,0.4-3.4,1.8-4.2,2.3
			c-0.2,0.2-0.4,0.3-0.6,0.4c-0.9,0.5-1.7,1-2.6,1.4c-0.5,0.3-0.9,0.7-1,1.1C38,17.4,38,17.6,38,17.7c0.4-0.1,0.9-0.1,1.3-0.1
			c3.6,0,6.6,3.1,6.6,6.9c0,3.8-2.9,6.9-6.6,6.9c-0.5,0-1.1-0.1-1.6-0.2c0.1,0.6,0.4,1,0.9,1.2c0.5,0.3,2.5,1.5,3.4,2.1
			c0.8,0.6,6.5,3.8,7.4,4.3c0.3,0.1,0.5,0.2,0.8,0.3c0.4,0.1,0.9,0.1,1.3-0.1c0.2-0.1,0.4-0.2,0.6-0.3c1-0.5,2-1.1,3-1.6
			c0.1-0.1,0.3-0.1,0.4-0.1c0.4,0.3,0.6,0.9,0.5,1.5c0,0.2-0.1,0.4-0.1,0.6c-0.3,2.3,1.5,4,3.7,3.3c1.2-0.3,2-1.1,2.3-2.3
			c0.3-1.1-0.1-2.1-1-2.8c-0.4-0.3-0.8-0.5-1.3-0.8c-0.5-0.3-0.8-0.8-0.9-1.2c0.1-0.2,0.2-0.4,0.4-0.6c0.2-0.2,0.4-0.3,0.6-0.4
			c0.9-0.5,1.7-1,2.6-1.4c0.5-0.3,0.9-0.7,1-1.1c0.1-0.2,0.2-0.4,0.2-0.7c0-0.2,0-0.4,0-0.7c0-1,0-1.9,0.1-2.9
			c0.4-0.9,1.4-1.2,2.4-0.5c0.2,0.1,0.3,0.2,0.5,0.3c1.9,1.4,4.2,0.5,4.7-1.7C71.6,24.4,71.3,23.3,70.4,22.5z"/>
		<path class="st1" d="M41.5,22.1c-0.9-0.8-1.9-0.9-2.9-0.5c-0.5,0.2-0.9,0.5-1.3,0.7c-0.5,0.3-1,0.3-1.5,0.2
			c-0.1-0.2-0.2-0.4-0.3-0.7c0-0.3,0-0.5,0-0.8c0-1,0-2,0-3c0-0.6-0.2-1.1-0.5-1.4c-0.1-0.2-0.3-0.4-0.5-0.5
			c-0.2-0.1-0.4-0.2-0.6-0.4c-0.8-0.5-1.7-1-2.5-1.5c-0.6-0.8-0.3-1.8,0.7-2.3c0.2-0.1,0.4-0.2,0.5-0.2c2.1-1,2.5-3.4,0.8-4.9
			c-0.9-0.8-2-1.1-3.2-0.7c-1.1,0.4-1.7,1.2-1.8,2.4c0,0.4,0,0.7,0,1.1c0,0.2,0,0.3,0,0.5c0,1-0.7,1.6-1.5,1.6c0,0-0.1,0-0.1,0
			c-0.2-0.1-0.5-0.2-0.7-0.3c-0.9-0.5-1.7-1-2.6-1.5c-0.8-0.4-1.5-0.4-2.1,0C21.3,9.8,21.2,9.9,21,10c-1,0.6-2,1.2-3,1.7
			c0,0-0.1,0-0.1,0.1c-0.2,0.7,0,1.4,0.8,1.8c0.4,0.2,0.9,0.4,1.2,0.6c0.8,0.6,1.3,1.5,1.1,2.6c-0.2,1.1-1,1.9-2,2.2
			c-2,0.7-3.8-0.7-3.6-2.9c0-0.2,0-0.4,0-0.6c0.1-0.9-0.4-1.5-1.1-1.6c-1.6,1-3.1,1.9-3.6,2.1c-0.2,0.1-0.4,0.3-0.6,0.5
			c-0.3,0.3-0.5,0.7-0.6,1.2c0,0.2,0,0.4,0,0.7c0,1.1,0,2.3,0,3.4c0,1-0.1,3.9,0,4.8c0,0.3,0,0.5,0,0.8c0,1,0,2,0,3
			c0,0.6,0.2,1.1,0.5,1.4c0.1,0.2,0.3,0.4,0.5,0.5c0.2,0.1,0.4,0.2,0.6,0.4c0.9,0.5,1.7,1,2.6,1.5c0.8,0,1.5-0.7,1.4-1.6
			c0-0.5-0.1-0.9,0-1.4c0.1-1.1,0.7-1.9,1.7-2.2c1.1-0.4,2.2-0.1,3,0.7c1.7,1.4,1.3,3.8-0.7,4.7c-0.2,0.1-0.3,0.2-0.5,0.2
			c-0.9,0.5-1.2,1.4-0.7,2.1c0.1,0.1,0.2,0.1,0.3,0.1c0.2,0.1,0.5,0.2,0.7,0.3c0.9,0.5,1.7,1,2.6,1.5c0.8,0.4,1.5,0.4,2.1,0
			c0.5-0.3,2.5-1.5,3.4-1.9c0.9-0.5,6.5-3.9,7.3-4.4c0.3-0.2,0.5-0.3,0.6-0.5c0.3-0.3,0.5-0.7,0.5-1.2c0-0.2,0-0.4,0-0.7
			c0-1.1,0-2.3,0-3.4c0-0.1,0-0.3,0.1-0.4c0.5-0.2,1.1-0.1,1.6,0.3c0.2,0.1,0.3,0.2,0.5,0.4c1.8,1.4,4.2,0.6,4.7-1.6
			C42.6,24,42.4,22.9,41.5,22.1z"/>
	</g>
</g>
</svg>
