<?xml version="1.0" encoding="utf-8"?>
<!-- Generator: Adobe Illustrator 24.0.2, SVG Export Plug-In . SVG Version: 6.00 Build 0)  -->
<svg version="1.1" id="Warstwa_1" xmlns="http://www.w3.org/2000/svg" xmlns:xlink="http://www.w3.org/1999/xlink" x="0px" y="0px"
	 viewBox="0 0 333.2 47" style="enable-background:new 0 0 333.2 47;" xml:space="preserve">
<style type="text/css">
	.st0{fill:#FFFFFF;}
</style>
<g>
	<g>
		<path class="st0" d="M71.4,22.5c-0.9-0.8-1.9-0.9-3-0.4c-0.3,0.1-0.6,0.4-1,0.6c-0.1,0.1-0.3,0.2-0.4,0.3
			c-0.8,0.5-1.7,0.2-2.1-0.6v-0.1c0-0.3,0-0.5,0-0.8c0-1,0-2,0-3c0-0.9-0.3-1.5-1-1.8c-0.2-0.1-0.3-0.2-0.5-0.3
			c-1-0.6-2-1.1-2.9-1.8c0,0-0.1,0-0.1-0.1c-0.7,0.1-1.2,0.7-1.2,1.6c0,0.5,0.1,0.9,0,1.4c-0.1,1-0.7,1.9-1.7,2.2
			c-1.1,0.4-2.1,0.1-3-0.7c-1.6-1.4-1.2-3.7,0.8-4.6c0.2-0.1,0.3-0.1,0.5-0.2c0.8-0.4,1.1-1.1,0.9-1.8c-1.6-0.9-3.2-1.8-3.6-2.1
			c-0.2-0.1-0.5-0.2-0.7-0.3c-0.4-0.1-0.9-0.1-1.3,0.1c-0.2,0.1-0.4,0.2-0.6,0.3c-1,0.5-2,1.1-3,1.6c-0.9,0.4-3.4,1.8-4.2,2.3
			c-0.2,0.2-0.4,0.3-0.6,0.4c-0.9,0.5-1.7,1-2.6,1.4c-0.5,0.3-0.9,0.7-1,1.1C39,17.4,39,17.6,39,17.7c0.4-0.1,0.9-0.1,1.3-0.1
			c3.6,0,6.6,3.1,6.6,6.9s-2.9,6.9-6.6,6.9c-0.5,0-1.1-0.1-1.6-0.2c0.1,0.6,0.4,1,0.9,1.2c0.5,0.3,2.5,1.5,3.4,2.1
			c0.8,0.6,6.5,3.8,7.4,4.3c0.3,0.1,0.5,0.2,0.8,0.3c0.4,0.1,0.9,0.1,1.3-0.1c0.2-0.1,0.4-0.2,0.6-0.3c1-0.5,2-1.1,3-1.6
			c0.1-0.1,0.3-0.1,0.4-0.1c0.4,0.3,0.6,0.9,0.5,1.5c0,0.2-0.1,0.4-0.1,0.6c-0.3,2.3,1.5,4,3.7,3.3c1.2-0.3,2-1.1,2.3-2.3
			c0.3-1.1-0.1-2.1-1-2.8c-0.4-0.3-0.8-0.5-1.3-0.8s-0.8-0.8-0.9-1.2c0.1-0.2,0.2-0.4,0.4-0.6c0.2-0.2,0.4-0.3,0.6-0.4
			c0.9-0.5,1.7-1,2.6-1.4c0.5-0.3,0.9-0.7,1-1.1c0.1-0.2,0.2-0.4,0.2-0.7c0-0.2,0-0.4,0-0.7c0-1,0-1.9,0.1-2.9
			C65,26.6,66,26.3,67,27c0.2,0.1,0.3,0.2,0.5,0.3c1.9,1.4,4.2,0.5,4.7-1.7C72.6,24.4,72.3,23.3,71.4,22.5z"/>
		<path class="st0" d="M42.5,22.1c-0.9-0.8-1.9-0.9-2.9-0.5c-0.5,0.2-0.9,0.5-1.3,0.7c-0.5,0.3-1,0.3-1.5,0.2
			c-0.1-0.2-0.2-0.4-0.3-0.7c0-0.3,0-0.5,0-0.8c0-1,0-2,0-3c0-0.6-0.2-1.1-0.5-1.4c-0.1-0.2-0.3-0.4-0.5-0.5s-0.4-0.2-0.6-0.4
			c-0.8-0.5-1.7-1-2.5-1.5c-0.6-0.8-0.3-1.8,0.7-2.3c0.2-0.1,0.4-0.2,0.5-0.2c2.1-1,2.5-3.4,0.8-4.9c-0.9-0.8-2-1.1-3.2-0.7
			c-1.1,0.4-1.7,1.2-1.8,2.4c0,0.4,0,0.7,0,1.1c0,0.2,0,0.3,0,0.5c0,1-0.7,1.6-1.5,1.6h-0.1c-0.2-0.1-0.5-0.2-0.7-0.3
			c-0.9-0.5-1.7-1-2.6-1.5c-0.8-0.4-1.5-0.4-2.1,0c-0.1-0.1-0.2,0-0.4,0.1c-1,0.6-2,1.2-3,1.7c0,0-0.1,0-0.1,0.1
			c-0.2,0.7,0,1.4,0.8,1.8c0.4,0.2,0.9,0.4,1.2,0.6c0.8,0.6,1.3,1.5,1.1,2.6c-0.2,1.1-1,1.9-2,2.2c-2,0.7-3.8-0.7-3.6-2.9
			c0-0.2,0-0.4,0-0.6c0.1-0.9-0.4-1.5-1.1-1.6c-1.6,1-3.1,1.9-3.6,2.1c-0.2,0.1-0.4,0.3-0.6,0.5c-0.3,0.3-0.5,0.7-0.6,1.2
			c0,0.2,0,0.4,0,0.7c0,1.1,0,2.3,0,3.4c0,1-0.1,3.9,0,4.8c0,0.3,0,0.5,0,0.8c0,1,0,2,0,3c0,0.6,0.2,1.1,0.5,1.4
			c0.1,0.2,0.3,0.4,0.5,0.5c0.2,0.1,0.4,0.2,0.6,0.4c0.9,0.5,1.7,1,2.6,1.5c0.8,0,1.5-0.7,1.4-1.6c0-0.5-0.1-0.9,0-1.4
			c0.1-1.1,0.7-1.9,1.7-2.2c1.1-0.4,2.2-0.1,3,0.7c1.7,1.4,1.3,3.8-0.7,4.7c-0.2,0.1-0.3,0.2-0.5,0.2c-0.9,0.5-1.2,1.4-0.7,2.1
			c0.1,0.1,0.2,0.1,0.3,0.1c0.2,0.1,0.5,0.2,0.7,0.3c0.9,0.5,1.7,1,2.6,1.5c0.8,0.4,1.5,0.4,2.1,0c0.5-0.3,2.5-1.5,3.4-1.9
			c0.9-0.5,6.5-3.9,7.3-4.4c0.3-0.2,0.5-0.3,0.6-0.5c0.3-0.3,0.5-0.7,0.5-1.2c0-0.2,0-0.4,0-0.7c0-1.1,0-2.3,0-3.4
			c0-0.1,0-0.3,0.1-0.4c0.5-0.2,1.1-0.1,1.6,0.3c0.2,0.1,0.3,0.2,0.5,0.4c1.8,1.4,4.2,0.6,4.7-1.6C43.6,24,43.4,22.9,42.5,22.1z"/>
	</g>
</g>
<g>
	<path class="st0" d="M84.1,34.8l0.3-1.7l3.4-1.1V16.7L84.2,16l0.2-1.8c4.2-0.7,7.4-1.1,9.7-1.1c3,0,5.2,0.5,6.8,1.5
		c1.6,1,2.4,2.5,2.4,4.4c0,1.3-0.4,2.5-1.3,3.5c-0.9,1.1-1.9,1.8-3.2,2.3l0,0l2.1,3c1.9,2.6,3.8,4.2,5.6,4.8l0.8,0.2l-0.3,1.6
		c-1,0.3-1.9,0.5-3,0.5c-1.6,0-3.1-0.6-4.4-1.7c-1.3-1.2-2.3-2.7-3.1-4.7l-0.8-2.1h-4v5.5l4,1l-0.2,1.9
		C95.5,34.8,84.1,34.8,84.1,34.8z M91.8,24.3h4.5c0.8-0.2,1.4-0.7,1.9-1.5s0.8-1.7,0.8-2.9c0-1.4-0.5-2.6-1.4-3.5s-2.3-1.3-3.9-1.3
		l-1.9,0.1V24.3z"/>
	<path class="st0" d="M109.9,15.3l0.3-1.7h7.1l10.8,15V16.3l-3.5-1l0.3-1.7H135l-0.3,1.7l-3.8,0.9v18.4l-3.5,0.7l-11-15.2v12.2
		l3.5,0.8l-0.3,1.8h-9.5l0.2-1.7l3.1-1.1V16.5L109.9,15.3z"/>
	<path class="st0" d="M135.5,34.8l0.2-1.7l2.7-1.3l7.4-18l3.4-0.7L156,32l2.4,1l-0.2,1.8H148l0.3-1.7l3-1.1l-1.5-4.3H143l-1.6,4.2
		l3.3,1l-0.3,1.8h-8.9V34.8z M143.9,25.4h5.1l-2.5-7.3L143.9,25.4z"/>
	<path class="st0" d="M162.1,25.7l0.3-2.3l9.3-0.4l-0.3,2.3L162.1,25.7z"/>
	<path class="st0" d="M175.4,34.8l0.3-1.7l3.1-1.1V16.6l-3.2-0.7l0.2-1.8c4.1-0.7,7.3-1,9.7-1c6.3,0,9.5,2.2,9.5,6.7
		c0,1.6-0.5,3-1.5,4.3c-1,1.2-2.2,2.1-3.8,2.6c-1.5,0.6-3.1,0.8-4.9,0.7l-0.4-1.9h1.2c1.5,0,2.6-0.5,3.5-1.4s1.3-2.2,1.3-3.7
		c0-1.6-0.5-2.9-1.4-3.9c-1-1-2.4-1.5-4.4-1.5l-1.4,0.1V32l4.5,0.9l-0.3,1.9C187.4,34.8,175.4,34.8,175.4,34.8z"/>
	<path class="st0" d="M197.3,15.3l0.3-1.7h11l-0.2,1.7l-3.2,0.9v10.4c0,3.9,1.7,5.8,5,5.8c1.7,0,3-0.4,3.8-1.1
		c0.9-0.8,1.3-2.1,1.3-4l0.1-11l-3.5-1l0.2-1.7h9.5l-0.3,1.7l-3.1,0.9l-0.1,10.3c0,3.2-0.8,5.4-2.4,6.8c-1.6,1.4-3.8,2.1-6.8,2.1
		c-5.5,0-8.3-2.6-8.3-7.9V16.3L197.3,15.3z"/>
	<path class="st0" d="M223.4,32.4l12.9-16.7h-8.2l-1.5,4.5l-2.3-0.4l0.2-6.2h17.2v1.7l-13.3,17.2h9.4l2.3-4.6l2.2,0.4l-0.8,6.5
		h-17.8L223.4,32.4z"/>
	<path class="st0" d="M244.9,32.4l12.9-16.7h-8.2l-1.5,4.5l-2.3-0.4l0.2-6.2h17.2v1.7L250,32.5h9.4l2.3-4.6l2.2,0.4l-0.8,6.5h-17.8
		L244.9,32.4z"/>
	<path class="st0" d="M266.4,15.3l0.3-1.7h11.4l-0.2,1.7l-3.4,1.1v16.2h7l2.2-4.5l2.3,0.3l-0.6,6.4h-18.6l0.2-1.7l3-1.1V16.5
		L266.4,15.3z"/>
	<path class="st0" d="M288.7,15.4l0.3-1.7h18.2l-0.5,6.2l-2.3-0.3l-0.7-3.8h-7.1v7.6h4l0.5-1.8l2.2-0.3l-0.8,6.8l-2.1,0.3l-0.3-2.9
		h-3.7v7.2h7.9l1.5-4.1l2.1,0.3l-0.5,6h-18.8l0.2-1.7l3.1-1.1V16.3L288.7,15.4z"/>
	<path class="st0" d="M310.8,33.4l0.8-5.7l2.3,0.3l0.4,3.4c0.5,0.6,1.1,1,1.6,1.2c0.5,0.2,1.3,0.4,2.4,0.4c0.8,0,1.5-0.2,2.2-0.6
		c0.6-0.4,1-1,1-1.8c0-0.6-0.2-1.1-0.6-1.6s-0.9-0.9-1.4-1.3c-0.6-0.4-1.3-0.7-2-1.1s-1.4-0.8-2.2-1.2c-0.7-0.4-1.4-0.9-2-1.4
		s-1.1-1.1-1.5-1.9s-0.6-1.6-0.6-2.5c0-2,0.7-3.5,2.2-4.7s3.2-1.7,5.3-1.7c2,0,3.7,0.4,5.1,1.1l-0.5,6L321,20l-0.3-3.4
		c-0.2-0.4-0.6-0.8-1.1-1.1s-1.1-0.4-1.7-0.4c-2.1,0-3.2,1-3.2,2.9c0,0.6,0.2,1.2,0.6,1.8c0.4,0.5,0.9,1,1.5,1.4s1.3,0.8,2,1.2
		s1.5,0.8,2.2,1.2c0.7,0.4,1.4,0.9,2,1.3c0.6,0.5,1.1,1.1,1.5,1.7c0.4,0.7,0.6,1.4,0.6,2.2c0,1.9-0.7,3.4-2.2,4.6s-3.2,1.8-5.2,1.8
		C314.5,35.3,312.1,34.7,310.8,33.4z"/>
</g>
</svg>
