<?xml version="1.0" encoding="utf-8"?>
<!-- Generator: Adobe Illustrator 24.0.2, SVG Export Plug-In . SVG Version: 6.00 Build 0)  -->
<svg version="1.1" id="Warstwa_1" xmlns="http://www.w3.org/2000/svg" xmlns:xlink="http://www.w3.org/1999/xlink" x="0px" y="0px"
	 viewBox="0 0 305.5 47" style="enable-background:new 0 0 305.5 47;" xml:space="preserve">
<style type="text/css">
	.st0{fill:#FFFFFF;}
</style>
<g>
	<g>
		<path class="st0" d="M71.4,22.5c-0.9-0.8-1.9-0.9-3-0.4c-0.3,0.1-0.6,0.4-1,0.6c-0.1,0.1-0.3,0.2-0.4,0.3
			c-0.8,0.5-1.7,0.2-2.1-0.6v-0.1c0-0.3,0-0.5,0-0.8c0-1,0-2,0-3c0-0.9-0.3-1.5-1-1.8c-0.2-0.1-0.3-0.2-0.5-0.3
			c-1-0.6-2-1.1-2.9-1.8c0,0-0.1,0-0.1-0.1c-0.7,0.1-1.2,0.7-1.2,1.6c0,0.5,0.1,0.9,0,1.4c-0.1,1-0.7,1.9-1.7,2.2
			c-1.1,0.4-2.1,0.1-3-0.7c-1.6-1.4-1.2-3.7,0.8-4.6c0.2-0.1,0.3-0.1,0.5-0.2c0.8-0.4,1.1-1.1,0.9-1.8c-1.6-0.9-3.2-1.8-3.6-2.1
			c-0.2-0.1-0.5-0.2-0.7-0.3c-0.4-0.1-0.9-0.1-1.3,0.1c-0.2,0.1-0.4,0.2-0.6,0.3c-1,0.5-2,1.1-3,1.6c-0.9,0.4-3.4,1.8-4.2,2.3
			c-0.2,0.2-0.4,0.3-0.6,0.4c-0.9,0.5-1.7,1-2.6,1.4c-0.5,0.3-0.9,0.7-1,1.1C39,17.4,39,17.6,39,17.7c0.4-0.1,0.9-0.1,1.3-0.1
			c3.6,0,6.6,3.1,6.6,6.9s-2.9,6.9-6.6,6.9c-0.5,0-1.1-0.1-1.6-0.2c0.1,0.6,0.4,1,0.9,1.2c0.5,0.3,2.5,1.5,3.4,2.1
			c0.8,0.6,6.5,3.8,7.4,4.3c0.3,0.1,0.5,0.2,0.8,0.3c0.4,0.1,0.9,0.1,1.3-0.1c0.2-0.1,0.4-0.2,0.6-0.3c1-0.5,2-1.1,3-1.6
			c0.1-0.1,0.3-0.1,0.4-0.1c0.4,0.3,0.6,0.9,0.5,1.5c0,0.2-0.1,0.4-0.1,0.6c-0.3,2.3,1.5,4,3.7,3.3c1.2-0.3,2-1.1,2.3-2.3
			c0.3-1.1-0.1-2.1-1-2.8c-0.4-0.3-0.8-0.5-1.3-0.8s-0.8-0.8-0.9-1.2c0.1-0.2,0.2-0.4,0.4-0.6c0.2-0.2,0.4-0.3,0.6-0.4
			c0.9-0.5,1.7-1,2.6-1.4c0.5-0.3,0.9-0.7,1-1.1c0.1-0.2,0.2-0.4,0.2-0.7c0-0.2,0-0.4,0-0.7c0-1,0-1.9,0.1-2.9
			C65,26.6,66,26.3,67,27c0.2,0.1,0.3,0.2,0.5,0.3c1.9,1.4,4.2,0.5,4.7-1.7C72.6,24.4,72.3,23.3,71.4,22.5z"/>
		<path class="st0" d="M42.5,22.1c-0.9-0.8-1.9-0.9-2.9-0.5c-0.5,0.2-0.9,0.5-1.3,0.7c-0.5,0.3-1,0.3-1.5,0.2
			c-0.1-0.2-0.2-0.4-0.3-0.7c0-0.3,0-0.5,0-0.8c0-1,0-2,0-3c0-0.6-0.2-1.1-0.5-1.4c-0.1-0.2-0.3-0.4-0.5-0.5s-0.4-0.2-0.6-0.4
			c-0.8-0.5-1.7-1-2.5-1.5c-0.6-0.8-0.3-1.8,0.7-2.3c0.2-0.1,0.4-0.2,0.5-0.2c2.1-1,2.5-3.4,0.8-4.9c-0.9-0.8-2-1.1-3.2-0.7
			c-1.1,0.4-1.7,1.2-1.8,2.4c0,0.4,0,0.7,0,1.1c0,0.2,0,0.3,0,0.5c0,1-0.7,1.6-1.5,1.6h-0.1c-0.2-0.1-0.5-0.2-0.7-0.3
			c-0.9-0.5-1.7-1-2.6-1.5c-0.8-0.4-1.5-0.4-2.1,0c-0.1-0.1-0.2,0-0.4,0.1c-1,0.6-2,1.2-3,1.7c0,0-0.1,0-0.1,0.1
			c-0.2,0.7,0,1.4,0.8,1.8c0.4,0.2,0.9,0.4,1.2,0.6c0.8,0.6,1.3,1.5,1.1,2.6c-0.2,1.1-1,1.9-2,2.2c-2,0.7-3.8-0.7-3.6-2.9
			c0-0.2,0-0.4,0-0.6c0.1-0.9-0.4-1.5-1.1-1.6c-1.6,1-3.1,1.9-3.6,2.1c-0.2,0.1-0.4,0.3-0.6,0.5c-0.3,0.3-0.5,0.7-0.6,1.2
			c0,0.2,0,0.4,0,0.7c0,1.1,0,2.3,0,3.4c0,1-0.1,3.9,0,4.8c0,0.3,0,0.5,0,0.8c0,1,0,2,0,3c0,0.6,0.2,1.1,0.5,1.4
			c0.1,0.2,0.3,0.4,0.5,0.5s0.4,0.2,0.6,0.4c0.9,0.5,1.7,1,2.6,1.5c0.8,0,1.5-0.7,1.4-1.6c0-0.5-0.1-0.9,0-1.4
			c0.1-1.1,0.7-1.9,1.7-2.2c1.1-0.4,2.2-0.1,3,0.7c1.7,1.4,1.3,3.8-0.7,4.7c-0.2,0.1-0.3,0.2-0.5,0.2c-0.9,0.5-1.2,1.4-0.7,2.1
			c0.1,0.1,0.2,0.1,0.3,0.1c0.2,0.1,0.5,0.2,0.7,0.3c0.9,0.5,1.7,1,2.6,1.5c0.8,0.4,1.5,0.4,2.1,0c0.5-0.3,2.5-1.5,3.4-1.9
			c0.9-0.5,6.5-3.9,7.3-4.4c0.3-0.2,0.5-0.3,0.6-0.5c0.3-0.3,0.5-0.7,0.5-1.2c0-0.2,0-0.4,0-0.7c0-1.1,0-2.3,0-3.4
			c0-0.1,0-0.3,0.1-0.4c0.5-0.2,1.1-0.1,1.6,0.3c0.2,0.1,0.3,0.2,0.5,0.4c1.8,1.4,4.2,0.6,4.7-1.6C43.6,24,43.4,22.9,42.5,22.1z"/>
	</g>
</g>
<g>
	<path class="st0" d="M107.6,33.4c-0.6-0.2-1.2-0.4-1.8-0.7c-1.1-0.6-2.5-2-4.2-4.4l-3.1-4.2l0.3-0.1c1.4-0.5,2.7-1.3,3.7-2.5
		c1-1.1,1.5-2.4,1.5-3.8c0-2.1-0.8-3.6-2.5-4.5c-1.7-0.9-4.2-1.4-7.4-1.4c-3.2,0-6.7,0.3-10.5,0.9l-0.2,1.8l3.4,0.7v16.9l-3.4,1.2
		L83.3,35h11.5l0.2-1.8l-3.1-1.1v-6.5h2.8l2.4,4.5c0.9,1.7,2,3.1,3.2,4c1.2,0.9,2.7,1.4,4.4,1.4c1.1,0,2.1-0.1,3-0.4l0.3-1.5
		L107.6,33.4z M95.5,23.3L95.5,23.3l-3.7,0V14l1.7-0.1c1.6,0,2.8,0.5,3.8,1.4c0.9,0.9,1.4,2.1,1.4,3.5
		C98.7,20.9,97.6,22.4,95.5,23.3z"/>
	<polygon class="st0" points="135.1,12.1 125.6,12.1 125.3,13.8 128.9,14.9 128.9,28.5 117.3,12.1 110.1,12.1 109.9,13.9 
		113.3,15.2 113.3,32.3 110,33.5 109.9,35 119.5,35 119.7,33.3 116.2,32.4 116.2,19.6 127.8,35.6 131.6,34.9 131.6,14.8 134.8,13.8 
			"/>
	<path class="st0" d="M143.9,27.6h8.1l1.6,4.3l-3.3,1.5L150,35h11.3l0.2-1.7l-2.7-1.3l0-0.1l-7.4-20.3l-4.4,0.8L139.1,32l-2.9,1.5
		L136,35h9.7l0.2-1.7l-3.6-1.3L143.9,27.6z M148.1,16l3.1,9.2h-6.5L148.1,16z"/>
	<g>
		<path class="st0" d="M162.8,28l0.3-2.6l9.4-0.4l-0.3,2.7L162.8,28z"/>
	</g>
	<path class="st0" d="M194.7,18.6c0-2.1-0.6-3.7-1.7-4.7c-1.5-1.4-4.1-2.1-7.7-2.1c-2.9,0-6.4,0.3-10.5,0.9l-0.2,1.8l3.4,0.7v17.1
		l-3.4,1.2l-0.3,1.5H187l0.3-1.8l-4.5-1.1V14.2l0.2,0c0.5-0.1,1.1-0.1,1.6-0.1c1.7,0,3,0.5,3.9,1.5c0.9,1,1.3,2.2,1.3,3.7
		c0,1.5-0.5,2.7-1.4,3.6c-0.9,0.8-2.3,1.3-4,1.3l-0.4,0l0.4,1.9c0.7,0,1.2,0.1,1.5,0.1c2.5,0,4.6-0.7,6.3-2.2
		C193.9,22.5,194.7,20.7,194.7,18.6z"/>
	<path class="st0" d="M210.4,34.9c1.1,0.9,3.3,0.9,5.8,0l0.3-2l-0.5-0.1c-1-0.3-1.6-0.6-2-1c-0.4-0.4-0.6-1.1-0.6-2.1V18.8l-0.5-0.6
		l-5.9,0.6l-0.4,2.5l2.6,1.1v7.8l-0.1,0.1c-0.9,0.8-1.8,1.3-2.8,1.3c-1,0-1.7-0.3-2.1-0.9c-0.4-0.6-0.6-1.6-0.6-2.9v-8.9l-0.6-0.6
		l-5.7,0.4l-0.4,2.2l2.5,1.5v7.8c0,1.9,0.4,3.3,1.1,4.1c0.7,0.8,1.8,1.2,3.4,1.2c1,0,2-0.3,2.9-0.8c0.9-0.5,1.6-1.2,2.2-2.2l0.1-0.1
		l0.6,0.1V33C209.6,33.8,209.8,34.5,210.4,34.9z"/>
	<polygon class="st0" points="231.3,29.4 229.2,32.8 223.4,32.8 232.5,20.3 232.5,18.4 219.2,18.4 218.9,23.5 220.8,23.8 
		222.3,20.4 227.6,20.4 218.9,32.8 219,35 232.1,35 232.9,29.8 	"/>
	<polygon class="st0" points="248,29.4 245.9,32.8 240.1,32.8 249.2,20.3 249.2,18.4 235.9,18.4 235.6,23.5 237.5,23.8 239,20.4 
		244.3,20.4 235.6,32.8 235.7,35 248.9,35 249.6,29.8 	"/>
	<polygon class="st0" points="259,11.8 258.4,11.2 252.2,11.7 251.9,13.6 254.9,15.1 254.9,32.1 252,33 251.8,35 261.8,35 262,33 
		259,32.1 	"/>
	<path class="st0" d="M278.2,31.7c-1.3,0.6-2.7,0.9-4.2,0.9c-1.7,0-3-0.5-4-1.5c-0.9-1-1.4-2.3-1.5-3.8l0-0.3l9.2-0.2
		c0.2-0.9,0.3-1.8,0.3-2.7c0-1.9-0.5-3.5-1.5-4.6c-1-1.1-2.3-1.7-4-1.7c-2.1,0-4,0.8-5.7,2.5c-0.8,0.8-1.5,1.7-1.9,2.9
		c-0.5,1.2-0.7,2.5-0.7,3.8c0,2.7,0.7,4.8,2.1,6.3c1.4,1.5,3.2,2.2,5.3,2.2c1.3,0,2.7-0.2,3.9-0.7c1.2-0.4,2.2-1.1,2.9-1.9
		L278.2,31.7z M268.5,25.4c0-1.6,0.3-2.8,0.8-3.7c0.6-1,1.3-1.5,2.1-1.5c1.1,0,2.4,0.6,2.4,3.4c0,0.6,0,1.1-0.1,1.4l0,0.2l-5.2,0.5
		L268.5,25.4z"/>
	<path class="st0" d="M293.7,30.6c0-0.8-0.2-1.5-0.6-2.2c-0.4-0.7-0.9-1.2-1.6-1.7c-0.6-0.4-1.3-0.9-2.1-1.3
		c-0.7-0.4-1.4-0.8-2.1-1.1c-0.7-0.3-1.2-0.7-1.7-1.1c-0.5-0.5-0.7-1-0.7-1.5c0-0.6,0.2-1,0.6-1.4c0.4-0.4,0.9-0.6,1.5-0.6
		c1.6,0,2.6,1,3.1,2.9l0.3,1c0.8-0.1,1.4-0.4,1.9-0.8c0.5-0.5,0.8-1.2,0.8-2c0-0.8-0.5-1.5-1.4-2c-1-0.5-2.1-0.8-3.5-0.8
		c-1.4,0-2.5,0.2-3.3,0.5c-0.9,0.4-1.5,0.8-2,1.4c-0.5,0.6-0.8,1.2-1.1,1.7c-0.2,0.6-0.4,1.2-0.4,1.9c0,0.7,0.2,1.3,0.6,2
		c0.4,0.7,0.9,1.2,1.5,1.7c1.2,0.9,2.5,1.7,4,2.4c1.6,0.7,2.3,1.5,2.3,2.4c0,0.8-0.4,1.8-2.6,1.8c-0.8,0-1.6-0.4-2.3-1.1
		c-0.6-0.7-1.1-1.6-1.5-2.8c-0.8,0.1-1.5,0.4-1.9,0.8c-0.5,0.4-0.7,1.1-0.7,1.9c0,0.8,0.6,1.5,1.7,2.2c1.2,0.7,2.6,1,4.4,1
		c1.8,0,3.3-0.5,4.6-1.4C293.1,33.3,293.7,32.1,293.7,30.6z"/>
</g>
</svg>
