<?xml version="1.0" encoding="utf-8"?>
<!-- Generator: Adobe Illustrator 24.0.2, SVG Export Plug-In . SVG Version: 6.00 Build 0)  -->
<svg version="1.1" id="Warstwa_1" xmlns="http://www.w3.org/2000/svg" xmlns:xlink="http://www.w3.org/1999/xlink" x="0px" y="0px"
	 viewBox="0 0 305.5 44" style="enable-background:new 0 0 305.5 44;" xml:space="preserve">
<style type="text/css">
	.st0{fill:#4D5558;}
	.st1{fill:#41457C;}
</style>
<g>
	<g>
		<path class="st0" d="M74.3,21.1c-0.9-0.8-1.9-0.9-3-0.4c-0.3,0.1-0.6,0.4-1,0.6c-0.1,0.1-0.3,0.2-0.4,0.3
			c-0.8,0.5-1.7,0.2-2.1-0.6v-0.1c0-0.3,0-0.5,0-0.8c0-1,0-2,0-3c0-0.9-0.3-1.5-1-1.8c-0.2-0.1-0.3-0.2-0.5-0.3
			c-1-0.6-2-1.1-2.9-1.8c0,0-0.1,0-0.1-0.1c-0.7,0.1-1.2,0.7-1.2,1.6c0,0.5,0.1,0.9,0,1.4c-0.1,1-0.7,1.9-1.7,2.2
			c-1.1,0.4-2.1,0.1-3-0.7c-1.6-1.4-1.2-3.7,0.8-4.6c0.2-0.1,0.3-0.1,0.5-0.2c0.8-0.4,1.1-1.1,0.9-1.8C58,10.1,56.4,9.2,56,8.9
			c-0.2-0.1-0.5-0.2-0.7-0.3c-0.4-0.1-0.9-0.1-1.3,0.1c-0.2,0.1-0.4,0.2-0.6,0.3c-1,0.5-2,1.1-3,1.6c-0.9,0.4-3.4,1.8-4.2,2.3
			c-0.2,0.2-0.4,0.3-0.6,0.4c-0.9,0.5-1.7,1-2.6,1.4c-0.5,0.3-0.9,0.7-1,1.1c-0.1,0.1-0.1,0.3-0.2,0.4c0.4-0.1,0.9-0.1,1.3-0.1
			c3.6,0,6.6,3.1,6.6,6.9s-2.9,7-6.5,7c-0.5,0-1.1-0.1-1.6-0.2c0.1,0.6,0.4,1,0.9,1.2c0.5,0.3,2.5,1.5,3.4,2.1
			c0.8,0.6,6.5,3.8,7.4,4.3c0.3,0.1,0.5,0.2,0.8,0.3c0.4,0.1,0.9,0.1,1.3-0.1c0.2-0.1,0.4-0.2,0.6-0.3c1-0.5,2-1.1,3-1.6
			c0.1-0.1,0.3-0.1,0.4-0.1c0.4,0.3,0.6,0.9,0.5,1.5c0,0.2-0.1,0.4-0.1,0.6c-0.3,2.3,1.5,4,3.7,3.3c1.2-0.3,2-1.1,2.3-2.3
			c0.3-1.1-0.1-2.1-1-2.8c-0.4-0.3-0.8-0.5-1.3-0.8c-0.5-0.3-0.8-0.8-0.9-1.2c0.1-0.2,0.2-0.4,0.4-0.6c0.2-0.2,0.4-0.3,0.6-0.4
			c0.9-0.5,1.7-1,2.6-1.4c0.5-0.3,0.9-0.7,1-1.1c0.1-0.2,0.2-0.4,0.2-0.7c0-0.2,0-0.4,0-0.7c0-1,0-1.9,0.1-2.9
			c0.4-0.9,1.4-1.2,2.4-0.5c0.2,0.1,0.3,0.2,0.5,0.3c1.9,1.4,4.2,0.5,4.7-1.7C75.5,23.1,75.2,22,74.3,21.1z"/>
		<path class="st1" d="M45.4,20.7c-0.9-0.8-1.9-0.9-2.9-0.5c-0.5,0.2-0.9,0.5-1.3,0.7c-0.5,0.3-1,0.3-1.5,0.2
			c-0.1-0.2-0.2-0.4-0.3-0.7c0-0.3,0-0.5,0-0.8c0-1,0-2,0-3c0-0.6-0.2-1.1-0.5-1.4c-0.1-0.2-0.3-0.4-0.5-0.5s-0.4-0.2-0.6-0.4
			c-0.8-0.5-1.7-1-2.5-1.5C34.7,12,35,11,36,10.5c0.2-0.1,0.4-0.2,0.5-0.2c2.1-1,2.5-3.4,0.8-4.9c-0.9-0.8-2-1.1-3.2-0.7
			C33,5.1,32.4,6,32.3,7.1c0,0.4,0,0.7,0,1.1c0,0.2,0,0.3,0,0.5c0,1-0.7,1.6-1.5,1.6h-0.1c-0.2-0.1-0.5-0.2-0.7-0.3
			c-0.9-0.5-1.7-1-2.6-1.5C26.7,8,26,8,25.4,8.4c-0.2,0.1-0.3,0.2-0.5,0.3c-1,0.6-2,1.2-3,1.7c0,0-0.1,0-0.1,0.1
			c-0.2,0.7,0,1.4,0.8,1.8c0.4,0.2,0.9,0.4,1.2,0.6c0.8,0.6,1.3,1.5,1.1,2.6c-0.2,1.1-1,1.9-2,2.2c-2,0.7-3.8-0.7-3.6-2.9
			c0-0.2,0-0.4,0-0.6c0.1-0.9-0.4-1.5-1.1-1.6c-1.6,1-3.1,1.9-3.6,2.1c-0.2,0.1-0.4,0.3-0.6,0.5c-0.3,0.3-0.5,0.7-0.6,1.2
			c0,0.2,0,0.4,0,0.7c0,1.1,0,2.3,0,3.4c0,1-0.1,3.9,0,4.8c0,0.3,0,0.5,0,0.8c0,1,0,2,0,3c0,0.6,0.2,1.1,0.5,1.4
			c0.1,0.2,0.3,0.4,0.5,0.5s0.4,0.2,0.6,0.4c0.9,0.5,1.7,1,2.6,1.5c0.8,0,1.5-0.7,1.4-1.6c0-0.5-0.1-0.9,0-1.4
			c0.1-1.1,0.7-1.9,1.7-2.2c1.1-0.4,2.2-0.1,3,0.7c1.7,1.4,1.3,3.8-0.7,4.7c-0.2,0.1-0.3,0.2-0.5,0.2c-0.9,0.5-1.2,1.4-0.7,2.1
			c0.1,0.1,0.2,0.1,0.3,0.1c0.2,0.1,0.5,0.2,0.7,0.3c0.9,0.5,1.7,1,2.6,1.5c0.8,0.4,1.5,0.4,2.1,0c0.5-0.3,2.5-1.5,3.4-1.9
			c0.9-0.5,6.5-3.9,7.3-4.4c0.3-0.2,0.5-0.3,0.6-0.5c0.3-0.3,0.5-0.7,0.5-1.2c0-0.2,0-0.4,0-0.7c0-1.1,0-2.3,0-3.4
			c0-0.1,0-0.3,0.1-0.4c0.5-0.2,1.1-0.1,1.6,0.3c0.2,0.1,0.3,0.2,0.5,0.4c1.8,1.4,4.2,0.6,4.7-1.6C46.5,22.6,46.3,21.5,45.4,20.7z"
			/>
	</g>
</g>
<g>
	<path d="M110.8,33.3c-0.7-0.2-1.3-0.4-1.8-0.7c-1.1-0.6-2.5-2.1-4.3-4.5l-3.1-4.2l0.3-0.1c1.5-0.5,2.7-1.4,3.7-2.5
		c1-1.2,1.5-2.5,1.5-3.8c0-2.2-0.8-3.7-2.5-4.6c-1.7-0.9-4.3-1.4-7.5-1.4c-3.2,0-6.8,0.3-10.7,0.9l-0.2,1.8l3.5,0.7v17.2l-3.5,1.2
		l-0.2,1.6h11.7L98,33l-3.2-1.1v-6.6h2.8l2.5,4.5c1,1.7,2,3.1,3.3,4.1c1.2,0.9,2.7,1.4,4.5,1.4c1.1,0,2.2-0.1,3.1-0.4l0.4-1.5
		L110.8,33.3z M98.6,23L98.6,23l-3.8,0v-9.5l1.7-0.1c1.6,0,2.9,0.5,3.8,1.4c1,0.9,1.4,2.2,1.4,3.6C101.8,20.5,100.7,22,98.6,23z"/>
	<polygon points="138.1,11.6 128.4,11.6 128.1,13.3 131.7,14.4 131.7,28.3 119.9,11.6 112.6,11.6 112.4,13.4 115.8,14.7 115.8,32.1 
		112.5,33.3 112.4,34.9 122.1,34.9 122.3,33.1 118.8,32.2 118.8,19.2 130.6,35.4 134.5,34.8 134.5,14.3 137.8,13.3 	"/>
	<path d="M147,27.4h8.2l1.6,4.4l-3.4,1.6l-0.2,1.6h11.5l0.2-1.7l-2.7-1.3l0-0.1l-7.5-20.6l-4.5,0.8l-8,19.8l-3,1.5l-0.2,1.6h9.9
		l0.2-1.7l-3.7-1.3L147,27.4z M151.2,15.5l3.2,9.4h-6.6L151.2,15.5z"/>
	<g>
		<path d="M166.2,27.8l0.3-2.7l9.6-0.4l-0.3,2.8L166.2,27.8z"/>
	</g>
	<path d="M198.7,18.2c0-2.1-0.6-3.8-1.8-4.8c-1.5-1.4-4.2-2.1-7.9-2.1c-2.9,0-6.5,0.3-10.7,0.9l-0.2,1.8l3.5,0.7v17.4l-3.5,1.2
		l-0.3,1.6h12.8l0.3-1.8l-4.6-1.1V13.7l0.2,0c0.6-0.1,1.1-0.1,1.7-0.1c1.7,0,3.1,0.5,3.9,1.5c0.9,1,1.3,2.3,1.3,3.8
		c0,1.5-0.5,2.8-1.4,3.6c-0.9,0.9-2.3,1.3-4.1,1.3l-0.4,0l0.4,1.9c0.7,0,1.2,0.1,1.6,0.1c2.6,0,4.7-0.8,6.5-2.3
		C197.9,22.1,198.7,20.3,198.7,18.2z"/>
	<path d="M213.8,34.7c1.1,0.9,3.3,0.9,5.9,0l0.3-2.1l-0.5-0.1c-1-0.3-1.6-0.6-2-1c-0.4-0.4-0.6-1.1-0.6-2.1V18.3l-0.6-0.6l-6,0.6
		l-0.4,2.5l2.7,1.1v8l-0.1,0.1c-0.9,0.9-1.9,1.3-2.9,1.3c-1,0-1.7-0.3-2.2-0.9c-0.4-0.6-0.6-1.6-0.6-3v-9l-0.6-0.6l-5.8,0.4
		l-0.4,2.2l2.5,1.5v8c0,2,0.4,3.4,1.1,4.2c0.7,0.8,1.9,1.2,3.4,1.2c1,0,2-0.3,2.9-0.8c0.9-0.5,1.7-1.2,2.3-2.2l0.1-0.1l0.6,0.1v0.5
		C213,33.7,213.3,34.3,213.8,34.7z"/>
	<polygon points="234.3,29.2 232.2,32.7 226.3,32.7 235.5,19.8 235.6,17.9 222,17.9 221.7,23.1 223.6,23.5 225.1,20 230.5,20 
		221.7,32.6 221.8,34.9 235.2,34.9 235.9,29.5 	"/>
	<polygon points="250.5,29.2 248.4,32.7 242.5,32.7 251.7,19.8 251.8,17.9 238.2,17.9 237.9,23.1 239.8,23.5 241.3,20 246.7,20 
		237.9,32.6 238,34.9 251.4,34.9 252.1,29.5 	"/>
	<polygon points="260.9,11.3 260.3,10.7 254,11.1 253.6,13.1 256.8,14.6 256.8,32 253.8,32.8 253.6,34.9 263.8,34.9 264,32.8 
		260.9,32 	"/>
	<path d="M279.7,31.5c-1.3,0.6-2.7,1-4.3,1c-1.7,0-3.1-0.5-4-1.6c-0.9-1-1.5-2.3-1.5-3.9l0-0.3l9.4-0.2c0.2-0.9,0.3-1.9,0.3-2.7
		c0-2-0.5-3.6-1.5-4.7c-1-1.1-2.4-1.7-4.1-1.7c-2.1,0-4.1,0.9-5.8,2.5c-0.8,0.8-1.5,1.8-2,3c-0.5,1.2-0.7,2.5-0.7,3.9
		c0,2.8,0.7,4.9,2.1,6.4c1.4,1.5,3.2,2.3,5.4,2.3c1.4,0,2.7-0.2,4-0.7c1.2-0.4,2.2-1.1,3-1.9L279.7,31.5z M269.8,25.1
		c0-1.6,0.3-2.9,0.9-3.8c0.6-1,1.3-1.5,2.1-1.5c1.1,0,2.4,0.6,2.4,3.4c0,0.6,0,1.1-0.1,1.5l0,0.2l-5.2,0.5L269.8,25.1z"/>
	<path d="M294.6,30.3c0-0.8-0.2-1.6-0.6-2.3c-0.4-0.7-1-1.3-1.6-1.7c-0.6-0.5-1.4-0.9-2.1-1.3c-0.8-0.4-1.5-0.8-2.1-1.1
		c-0.7-0.3-1.3-0.7-1.7-1.2c-0.5-0.5-0.7-1-0.7-1.6c0-0.6,0.2-1,0.6-1.4c0.4-0.4,0.9-0.6,1.6-0.6c1.6,0,2.7,1,3.2,3l0.3,1
		c0.8-0.1,1.4-0.4,1.9-0.9c0.6-0.5,0.8-1.2,0.8-2c0-0.8-0.5-1.5-1.4-2c-1-0.5-2.2-0.8-3.5-0.8c-1.4,0-2.5,0.2-3.4,0.6
		c-0.9,0.4-1.6,0.8-2,1.4c-0.5,0.6-0.9,1.2-1.1,1.8c-0.2,0.6-0.4,1.3-0.4,1.9c0,0.7,0.2,1.4,0.6,2c0.4,0.7,0.9,1.2,1.5,1.7
		c1.2,0.9,2.6,1.7,4.1,2.4c1.6,0.8,2.4,1.6,2.4,2.5c0,0.8-0.5,1.9-2.6,1.9c-0.8,0-1.6-0.4-2.3-1.1c-0.6-0.7-1.1-1.6-1.5-2.9
		c-0.8,0.1-1.5,0.4-1.9,0.8c-0.5,0.5-0.8,1.1-0.8,1.9c0,0.8,0.6,1.6,1.7,2.2c1.2,0.7,2.7,1,4.5,1c1.8,0,3.4-0.5,4.7-1.4
		C294,33.1,294.6,31.9,294.6,30.3z"/>
</g>
</svg>
